<svg xmlns="http://www.w3.org/2000/svg" viewBox="0 0 192 192" width="192" height="192">
  <rect width="192" height="192" rx="40" fill="#1e3a8a"/>
  <!-- Subtle circular backdrop -->
  <circle cx="96" cy="96" r="64" fill="#2563eb" opacity="0.3"/>
  <!-- Shield emblem outline -->
  <path d="M96 28 L144 48 V98 C144 130 96 156 96 156 C96 156 48 130 48 98 V48 Z" fill="none" stroke="#60a5fa" stroke-width="4" stroke-linejoin="round"/>
  <!-- Infrastructure bridge / pillars inside shield -->
  <path d="M68 116 L68 76 L82 76 L82 116" fill="#ffffff" opacity="0.9"/>
  <path d="M110 116 L110 76 L124 76 L124 116" fill="#ffffff" opacity="0.9"/>
  <path d="M60 88 C76 78, 116 78, 132 88" fill="none" stroke="#38bdf8" stroke-width="4" stroke-linecap="round"/>
  <path d="M54 116 L138 116" stroke="#ffffff" stroke-width="5" stroke-linecap="round"/>
  <!-- Golden Star of Authority -->
  <polygon points="96,52 99,61 108,61 101,67 103,76 96,70 89,76 91,67 84,61 93,61" fill="#fbbf24"/>
  <!-- 360 Arc -->
  <path d="M72 136 C80 142 112 142 120 136" fill="none" stroke="#34d399" stroke-width="3.5" stroke-linecap="round"/>
</svg>
